<svg xmlns="http://www.w3.org/2000/svg" viewBox="0 0 15.96 15.28"><defs><style>.cls-1{fill:#32ca20;fill-rule:evenodd;}</style></defs><title>Asset 2</title><g id="Layer_2" data-name="Layer 2"><g id="레이어_1" data-name="레이어 1"><path class="cls-1" d="M5.5,7.89v6.54c0,.84,0,.84-.79.84-1.38,0-2.75,0-4.13,0-.41,0-.58-.12-.58-.58Q0,7.64,0,.57C0,.13.14,0,.55,0c1.51,0,3,0,4.54,0a.82.82,0,0,1,.74.48c1.23,1.9,2.47,3.79,3.7,5.68a7.51,7.51,0,0,0,.94,1.24V6.85c0-2,0-4.11,0-6.16,0-.52.15-.7.66-.69C12.54,0,14,0,15.39,0c.44,0,.57.16.57.6q0,7,0,14.08c0,.44-.12.6-.56.6q-2.22,0-4.44,0a.88.88,0,0,1-.82-.45Q8.32,12,6.48,9.19L5.6,7.85Z"/></g></g></svg>