<svg xmlns="http://www.w3.org/2000/svg" viewBox="0 0 39.89 39.89"><defs><style>.cls-1{fill:#b3b3b3;}</style></defs><title>Asset 1</title><g id="Layer_2" data-name="Layer 2"><g id="Layer_1-2" data-name="Layer 1"><path class="cls-1" d="M19.94,39.89a19.95,19.95,0,1,1,20-19.95A20,20,0,0,1,19.94,39.89Zm0-38.24A18.29,18.29,0,1,0,38.23,19.94,18.32,18.32,0,0,0,19.94,1.65Z"/><path class="cls-1" d="M19.94,30.19A10.25,10.25,0,1,1,30.19,19.94,10.26,10.26,0,0,1,19.94,30.19Zm0-18.84a8.6,8.6,0,1,0,8.6,8.59A8.6,8.6,0,0,0,19.94,11.35Z"/><path class="cls-1" d="M19.94,11.35a.83.83,0,0,1-.82-.83V7.61a.83.83,0,1,1,1.65,0v2.91A.83.83,0,0,1,19.94,11.35Z"/><path class="cls-1" d="M22.86,11.81a.73.73,0,0,1-.25,0,.82.82,0,0,1-.53-1L23,8a.83.83,0,1,1,1.57.51l-.9,2.77A.83.83,0,0,1,22.86,11.81Z"/><path class="cls-1" d="M25.49,13.16A.79.79,0,0,1,25,13a.82.82,0,0,1-.18-1.15l1.72-2.36a.82.82,0,1,1,1.33,1l-1.72,2.36A.82.82,0,0,1,25.49,13.16Z"/><path class="cls-1" d="M27.58,15.26a.83.83,0,0,1-.48-1.5l2.36-1.71a.83.83,0,0,1,1.15.19.82.82,0,0,1-.18,1.15L28.06,15.1A.84.84,0,0,1,27.58,15.26Z"/><path class="cls-1" d="M28.91,17.9a.83.83,0,0,1-.25-1.62l2.78-.89a.83.83,0,0,1,.5,1.58l-2.77.89A1.17,1.17,0,0,1,28.91,17.9Z"/><path class="cls-1" d="M32.28,20.83H29.36a.83.83,0,0,1,0-1.65h2.92a.83.83,0,0,1,0,1.65Z"/><path class="cls-1" d="M31.65,24.65a.78.78,0,0,1-.26,0l-2.77-.92a.82.82,0,1,1,.52-1.56l2.77.91a.83.83,0,0,1,.52,1.05A.8.8,0,0,1,31.65,24.65Z"/><path class="cls-1" d="M29.87,28.09a.82.82,0,0,1-.49-.16L27,26.2a.83.83,0,0,1,1-1.33l2.35,1.73a.83.83,0,0,1,.17,1.16A.81.81,0,0,1,29.87,28.09Z"/><path class="cls-1" d="M27.11,30.81a.81.81,0,0,1-.67-.35l-1.7-2.37a.83.83,0,0,1,1.35-1l1.69,2.37a.83.83,0,0,1-.19,1.16A.85.85,0,0,1,27.11,30.81Z"/><path class="cls-1" d="M23.64,32.54a.84.84,0,0,1-.79-.58L22,29.18a.82.82,0,0,1,.54-1,.84.84,0,0,1,1,.54l.87,2.78a.82.82,0,0,1-.54,1A1.09,1.09,0,0,1,23.64,32.54Z"/><path class="cls-1" d="M19.81,33.1h0a.81.81,0,0,1-.81-.83l0-2.92a.82.82,0,0,1,.82-.81h0a.83.83,0,0,1,.82.83l0,2.92A.83.83,0,0,1,19.81,33.1Z"/><path class="cls-1" d="M16,32.46a.85.85,0,0,1-.26-.05.82.82,0,0,1-.52-1l.93-2.77a.83.83,0,0,1,1.57.53l-.93,2.77A.84.84,0,0,1,16,32.46Z"/><path class="cls-1" d="M12.56,30.66a.83.83,0,0,1-.66-1.32L13.65,27a.82.82,0,0,1,1.15-.17A.83.83,0,0,1,15,28l-1.74,2.34A.86.86,0,0,1,12.56,30.66Z"/><path class="cls-1" d="M9.86,27.88a.83.83,0,0,1-.47-1.5l2.38-1.68a.83.83,0,0,1,1,1.35l-2.38,1.68A.85.85,0,0,1,9.86,27.88Z"/><path class="cls-1" d="M8.15,24.41a.83.83,0,0,1-.24-1.62l2.79-.86a.83.83,0,0,1,.48,1.58l-2.78.86A.73.73,0,0,1,8.15,24.41Z"/><path class="cls-1" d="M10.52,20.62h0l-2.92-.05a.83.83,0,0,1,0-1.65l2.92,0a.83.83,0,0,1,0,1.65Z"/><path class="cls-1" d="M11,17.71a.86.86,0,0,1-.27-.05L8,16.71a.82.82,0,1,1,.53-1.56l2.76,1a.83.83,0,0,1,.51,1A.82.82,0,0,1,11,17.71Z"/><path class="cls-1" d="M12.42,15.1a.86.86,0,0,1-.5-.17L9.6,13.17A.82.82,0,0,1,9.43,12a.83.83,0,0,1,1.16-.17l2.33,1.76a.83.83,0,0,1,.16,1.16A.84.84,0,0,1,12.42,15.1Z"/><path class="cls-1" d="M14.55,13a.83.83,0,0,1-.68-.35L12.2,10.3a.82.82,0,0,1,.21-1.15.83.83,0,0,1,1.15.2l1.67,2.4A.82.82,0,0,1,15,12.9.81.81,0,0,1,14.55,13Z"/><path class="cls-1" d="M17.21,11.75a.83.83,0,0,1-.79-.58l-.85-2.79a.83.83,0,0,1,.56-1,.81.81,0,0,1,1,.55L18,10.69a.83.83,0,0,1-.55,1Z"/><path class="cls-1" d="M24.59,17.17a1,1,0,1,1-1-1A1,1,0,0,1,24.59,17.17Z"/><path class="cls-1" d="M22.65,23.19a4.75,4.75,0,1,1,4.74-4.75A4.75,4.75,0,0,1,22.65,23.19Zm0-7.84a3.09,3.09,0,1,0,3.09,3.09A3.1,3.1,0,0,0,22.65,15.35Z"/><path class="cls-1" d="M15.63,26.18A3.14,3.14,0,1,1,18.78,23,3.15,3.15,0,0,1,15.63,26.18Zm0-4.63A1.49,1.49,0,1,0,17.13,23,1.49,1.49,0,0,0,15.63,21.55Z"/></g></g></svg>