<svg xmlns="http://www.w3.org/2000/svg" viewBox="0 0 40.03 40.03"><defs><style>.cls-1{fill:#e34f3b;}</style></defs><title>Asset 3</title><g id="Layer_2" data-name="Layer 2"><g id="Layer_1-2" data-name="Layer 1"><path class="cls-1" d="M20,40A20,20,0,1,1,40,20,20,20,0,0,1,20,40ZM20,1.66A18.36,18.36,0,1,0,38.37,20,18.37,18.37,0,0,0,20,1.66Z"/><path class="cls-1" d="M9.91,15.84a.62.62,0,0,1-.23,0l-2.49-.9a.66.66,0,0,1-.4-.85.65.65,0,0,1,.85-.4l2.49.9a.66.66,0,0,1-.22,1.29Z"/><path class="cls-1" d="M11.43,13.93a.7.7,0,0,1-.41-.14L8.93,12.16a.66.66,0,1,1,.81-1.05l2.1,1.63a.66.66,0,0,1,.11.93A.65.65,0,0,1,11.43,13.93Z"/><path class="cls-1" d="M13.2,12.52a.66.66,0,0,1-.6-.38l-1.13-2.4a.66.66,0,0,1,1.2-.56l1.13,2.4a.67.67,0,0,1-.32.88A.71.71,0,0,1,13.2,12.52Z"/><path class="cls-1" d="M21.21,32.57A11,11,0,0,1,10.08,21.75,11,11,0,0,1,21.21,10.92,11,11,0,0,1,32.35,21.75,11,11,0,0,1,21.21,32.57Zm0-20.33a9.67,9.67,0,0,0-9.8,9.51,9.67,9.67,0,0,0,9.8,9.5A9.67,9.67,0,0,0,31,21.75,9.68,9.68,0,0,0,21.21,12.24Z"/><path class="cls-1" d="M10.87,25.6a3.61,3.61,0,1,1,0-7.21.66.66,0,0,1,0,1.32,2.28,2.28,0,1,0,0,4.56.67.67,0,0,1,0,1.33Z"/><path class="cls-1" d="M31.34,25.6a.67.67,0,0,1,0-1.33,2.28,2.28,0,1,0,0-4.56.66.66,0,0,1,0-1.32,3.61,3.61,0,1,1,0,7.21Z"/><path class="cls-1" d="M22,18.94a4,4,0,1,1,0-8,.67.67,0,1,1,0,1.33,2.68,2.68,0,1,0,0,5.35.66.66,0,1,1,0,1.32Z"/><path class="cls-1" d="M22,18.94a.66.66,0,0,1,0-1.32,1.19,1.19,0,0,0,0-2.38.67.67,0,0,1,0-1.33,2.52,2.52,0,1,1,0,5Z"/><path class="cls-1" d="M14.88,24.33a.66.66,0,0,1-.47-1.13l3.27-3.27a.66.66,0,0,1,.94.94l-3.28,3.27A.63.63,0,0,1,14.88,24.33Z"/><path class="cls-1" d="M18.15,24.33a.66.66,0,0,1-.47-.19l-3.27-3.27a.66.66,0,0,1,0-.94.65.65,0,0,1,.93,0l3.28,3.27a.66.66,0,0,1-.47,1.13Z"/><path class="cls-1" d="M24.06,24.33a.66.66,0,0,1-.47-1.13l3.27-3.27a.66.66,0,0,1,.94.94l-3.27,3.27A.66.66,0,0,1,24.06,24.33Z"/><path class="cls-1" d="M27.33,24.33a.66.66,0,0,1-.47-.19l-3.27-3.27a.66.66,0,0,1,.94-.94L27.8,23.2a.66.66,0,0,1-.47,1.13Z"/><path class="cls-1" d="M24.86,28.35a.67.67,0,0,1-.47-.2A4.61,4.61,0,0,0,21,26.57a5,5,0,0,0-3.19,1.55.67.67,0,0,1-1-.88,6.32,6.32,0,0,1,4.13-2,5.92,5.92,0,0,1,4.35,2,.67.67,0,0,1-.47,1.14Z"/></g></g></svg>