<svg xmlns="http://www.w3.org/2000/svg" xmlns:xlink="http://www.w3.org/1999/xlink" viewBox="0 0 34.01 26.33"><defs><style>.cls-1{fill:none;}.cls-2{clip-path:url(#clip-path);}.cls-3{fill:#fff;}.cls-4{fill:#fe0000;fill-rule:evenodd;}</style><clipPath id="clip-path"><rect id="SVGID" class="cls-1" x="10.03" y="15.15" width="13.72" height="7.58" rx="1.58" ry="1.58"/></clipPath></defs><title>dsl-canada</title><g id="Layer_2" data-name="Layer 2"><g id="Layer_1-2" data-name="Layer 1"><path d="M33.91,12.23A4.38,4.38,0,0,0,30.07,8.8a.63.63,0,0,1-.6-.47,13.44,13.44,0,0,0-15-8.07A13.08,13.08,0,0,0,4.74,7.83c-.29.62-.54,1.1-1.31,1a.32.32,0,0,0-.16,0,4.38,4.38,0,0,0,.65,8.6.64.64,0,0,1,.6.48,12.84,12.84,0,0,0,4.84,6A13.24,13.24,0,0,0,17,26.31v0A13.27,13.27,0,0,0,24.65,24,12.84,12.84,0,0,0,29.49,18a.64.64,0,0,1,.59-.48,4.56,4.56,0,0,0,1.28-.34h0a4.59,4.59,0,0,0,.62-.33A4.38,4.38,0,0,0,33.91,12.23Zm-3.74,3.61a6.73,6.73,0,0,1-1.27,0c-.15,0-.39,0-.43.13v0h0a.3.3,0,0,1,0,.1l-.07.18a8.91,8.91,0,0,1-.68,1.63c-2.31,4-5.39,6.39-10,6.78h-.07a9.31,9.31,0,0,1-1.29,0A11.69,11.69,0,0,1,6.26,17.91c-.33-.66-.54-1.38-.82-2.11l-.58.08a2.79,2.79,0,0,1-3.08-1.81,2.76,2.76,0,0,1,3.14-3.62c.41.07.59,0,.72-.43a11.5,11.5,0,0,1,6.17-7.19,1.59,1.59,0,0,1,.35-.13,1,1,0,0,1,0,.18,3.38,3.38,0,0,0,2,3.91,7.17,7.17,0,0,0,3.23.59,4.35,4.35,0,0,0,2.33-.77A1.9,1.9,0,0,0,20.49,4,3.42,3.42,0,0,0,16,2.76a.85.85,0,0,0-.33,1.06c.15.39.4.51.87.42l.54-.15a2.13,2.13,0,0,1,1.58.24c.5.29.51.65,0,1a1.78,1.78,0,0,1-.3.17,3.64,3.64,0,0,1-2,.25A3.94,3.94,0,0,1,14,4.82a1,1,0,0,1-.2-1.52,3,3,0,0,1,.88-.81,6,6,0,0,1,4.08-.7,11.56,11.56,0,0,1,9.52,8.12c.2.6.19.6.81.52a2.79,2.79,0,0,1,3.18,2.18A2.73,2.73,0,0,1,30.17,15.84Z"/><path d="M21.83,17l-.16-.67c.06,0,6.45-1.64,6.72-6.77l.69,0C28.78,15.24,21.9,17,21.83,17Z"/><path d="M23.22,21.76a7.27,7.27,0,0,1-1.1-.08l.14-.68a5.37,5.37,0,0,0,5.95-3l.63.28A5.84,5.84,0,0,1,23.22,21.76Z"/><path d="M12.26,17C12.19,17,5.31,15.24,5,9.6l.69,0c.27,5.14,6.66,6.75,6.73,6.77Z"/><path d="M10.87,21.76a5.84,5.84,0,0,1-5.62-3.5L5.88,18a5.37,5.37,0,0,0,6,3l.14.68A7.27,7.27,0,0,1,10.87,21.76Z"/><g class="cls-2"><rect class="cls-3" x="12.63" y="14.72" width="8.52" height="8.92"/><path class="cls-3" d="M21.21,23.7H12.57v-9h8.64Zm-8.52-.11H21.1V14.78H12.69Z"/><path class="cls-4" d="M9.42,23.65c0-.42,0-.83,0-1.24V14.84s0-.08,0-.12h3.11c.08,0,.1,0,.1,0V23.6s0,0-.1,0Z"/><path class="cls-3" d="M12.53,23.7H9.37v-9h3.16c.06,0,.16,0,.16.11V23.6C12.69,23.7,12.59,23.7,12.53,23.7ZM11,23.59h1.59V14.78H9.48v8.81H11Z"/><path class="cls-4" d="M21.15,23.65V14.72H24c.08,0,.09,0,.09,0V23.6s0,0-.09,0Z"/><path class="cls-3" d="M24,23.7H21.1v-9H24c.05,0,.15,0,.15.11V23.6C24.11,23.7,24,23.7,24,23.7Zm-1.4-.11H24V14.78H21.21v8.81h1.35Z"/><path class="cls-4" d="M17,20.87c0,.32,0,.64,0,1,0,.07,0,.14,0,.21s0,.06-.05.05h-.13s-.05,0-.05-.05,0-.38,0-.56,0-.21,0-.31,0-.24,0-.36a.12.12,0,0,0-.13-.12l-.73.1c-.14,0-.29,0-.43.06s-.06,0,0-.05a2.76,2.76,0,0,0,.08-.27.16.16,0,0,0-.06-.22l-.7-.56-.49-.39s0-.05,0-.07l.22-.1c.07,0,.08-.05.06-.13s0-.11,0-.17l-.17-.59s0-.05,0,0l.66.14a.11.11,0,0,0,.14-.08c0-.09.05-.18.08-.27s0-.05.06,0,.27.31.41.46a1.07,1.07,0,0,0,.14.16.09.09,0,0,0,.06,0c.06,0,.1,0,.11-.06a.56.56,0,0,0,0-.13L16,17.71l-.09-.42s0,0,0-.06,0,0,0,0l.29.14c.11.06.17,0,.23-.06.13-.26.27-.5.4-.75,0,0,0,0,0,0s0,0,0,0l.41.76c.05.1.11.11.21.07l.31-.16s0,0,.05,0,0,0,0,.05c-.08.41-.15.81-.23,1.22a.28.28,0,0,0,0,.09s0,.08,0,.1a.11.11,0,0,0,.12,0l.14-.14L18.4,18s0,0,.06,0a2.17,2.17,0,0,0,.07.24c0,.1.07.12.17.1l.59-.12c.11,0,.11,0,.08.08l-.18.65h0c0,.13,0,.15.1.2l.19.09s0,0,0,.05l-1,.77-.24.2a.17.17,0,0,0-.06.22,2.41,2.41,0,0,1,.08.25c0,.06,0,.07-.05.06l-.38-.05-.5-.07-.28,0a.1.1,0,0,0-.11.1s0,.05,0,.08Z"/></g><path d="M9.55,13.68a1.41,1.41,0,0,1-1-.35.3.3,0,0,1,0-.41.28.28,0,0,1,.4,0c.82.79,3.85-.89,5.58-2.13a.28.28,0,0,1,.4.06.29.29,0,0,1-.07.4C14.44,11.55,11.41,13.68,9.55,13.68Z"/><path d="M24.57,13.68c-1.86,0-4.88-2.13-5.29-2.43a.29.29,0,0,1,.34-.46c1.72,1.24,4.76,2.93,5.57,2.13a.29.29,0,1,1,.41.41A1.44,1.44,0,0,1,24.57,13.68Z"/><path d="M22.16,23H11.61A1.81,1.81,0,0,1,9.8,21.14V16.73a1.81,1.81,0,0,1,1.81-1.81H22.16A1.81,1.81,0,0,1,24,16.73v4.41A1.81,1.81,0,0,1,22.16,23ZM11.61,15.38a1.35,1.35,0,0,0-1.35,1.35v4.41a1.36,1.36,0,0,0,1.35,1.35H22.16a1.36,1.36,0,0,0,1.36-1.35V16.73a1.35,1.35,0,0,0-1.36-1.35Z"/></g></g></svg>