<svg xmlns="http://www.w3.org/2000/svg" viewBox="0 0 39.89 39.89"><defs><style>.cls-1{fill:#b3b3b3;}</style></defs><title>Asset 2</title><g id="Layer_2" data-name="Layer 2"><g id="Layer_1-2" data-name="Layer 1"><path class="cls-1" d="M19.94,39.89a19.95,19.95,0,1,1,20-19.95A20,20,0,0,1,19.94,39.89Zm0-38.24A18.29,18.29,0,1,0,38.23,19.94,18.32,18.32,0,0,0,19.94,1.65Z"/><path class="cls-1" d="M32.25,16.61a.84.84,0,0,1-.55-.21c-4.22-3.73-8.54-5.49-12.86-5.22A16.93,16.93,0,0,0,8.26,16.33a.83.83,0,0,1-1.17.07A.82.82,0,0,1,7,15.24a18.28,18.28,0,0,1,11.71-5.7c4.78-.31,9.51,1.58,14.08,5.62a.83.83,0,0,1-.55,1.45Z"/><path class="cls-1" d="M20.18,22.06c-4.44,0-8.84-1.9-13.09-5.66a.83.83,0,0,1,1.09-1.24c4.22,3.73,8.55,5.49,12.86,5.22a17,17,0,0,0,10.59-5.14.83.83,0,0,1,1.17-.08.83.83,0,0,1,.07,1.17A18.31,18.31,0,0,1,21.17,22Q20.67,22.06,20.18,22.06Z"/><path class="cls-1" d="M19.94,21.76a6,6,0,1,1,6-6A6,6,0,0,1,19.94,21.76Zm0-10.4a4.38,4.38,0,1,0,4.38,4.38A4.38,4.38,0,0,0,19.94,11.36Z"/><path class="cls-1" d="M23.09,15.74a3.15,3.15,0,1,1-3.15-3.15A3.15,3.15,0,0,1,23.09,15.74Z"/><path class="cls-1" d="M12.25,13a.83.83,0,0,1-.49-.17L8.48,10.39a.82.82,0,1,1,1-1.32l3.29,2.43a.83.83,0,0,1-.5,1.49Z"/><path class="cls-1" d="M16.1,11.58a.83.83,0,0,1-.69-.35l-2.1-3.07a.82.82,0,1,1,1.36-.93l2.11,3.06a.83.83,0,0,1-.22,1.15A.78.78,0,0,1,16.1,11.58Z"/><path class="cls-1" d="M20,11a.82.82,0,0,1-.82-.82V6.69A.82.82,0,0,1,20,5.86a.83.83,0,0,1,.83.83v3.44A.83.83,0,0,1,20,11Z"/><path class="cls-1" d="M27.63,13a.83.83,0,0,1-.49-1.49l3.29-2.43a.82.82,0,1,1,1,1.32l-3.29,2.43A.81.81,0,0,1,27.63,13Z"/><path class="cls-1" d="M23.79,11.58a.82.82,0,0,1-.68-1.29l2.11-3.06A.82.82,0,0,1,26.37,7a.83.83,0,0,1,.21,1.15l-2.11,3.07A.83.83,0,0,1,23.79,11.58Z"/><path class="cls-1" d="M22.43,33.14A.86.86,0,0,1,22,33a.82.82,0,0,1-.32-1.12l2.45-4.37-1.53.36a.82.82,0,0,1-.84-.29.81.81,0,0,1-.09-.88l2.15-4.38A.83.83,0,0,1,25,22a.81.81,0,0,1,.37,1.1L24,25.89l1.66-.4a.83.83,0,0,1,.91,1.21l-3.37,6A.82.82,0,0,1,22.43,33.14Z"/><path class="cls-1" d="M12.26,34a.83.83,0,0,1-.66-.32.82.82,0,0,1,.16-1.16l4.44-3.37-1.83-.33a.8.8,0,0,1-.65-.6A.81.81,0,0,1,14,27.4L18,24a.82.82,0,0,1,1.16.09.84.84,0,0,1-.1,1.17l-2.69,2.28,1.95.34a.84.84,0,0,1,.66.62.82.82,0,0,1-.31.85l-5.94,4.52A.82.82,0,0,1,12.26,34Z"/></g></g></svg>