<svg xmlns="http://www.w3.org/2000/svg" viewBox="0 0 40.03 40.03"><defs><style>.cls-1{fill:#e34f3b;}</style></defs><title>Asset 4</title><g id="Layer_2" data-name="Layer 2"><g id="Layer_1-2" data-name="Layer 1"><path class="cls-1" d="M20,40A20,20,0,1,1,40,20,20,20,0,0,1,20,40ZM20,1.66A18.36,18.36,0,1,0,38.37,20,18.37,18.37,0,0,0,20,1.66Z"/><path class="cls-1" d="M15.76,26.42a5.29,5.29,0,0,1,0-10.57.83.83,0,0,1,0,1.66,3.63,3.63,0,0,0,0,7.26.83.83,0,1,1,0,1.65Z"/><path class="cls-1" d="M15.87,17.51a.83.83,0,0,1-.78-.53,10.53,10.53,0,0,1-.66-3.71c0-4.3,2.5-7.79,5.59-7.79a.83.83,0,0,1,0,1.66c-2.14,0-3.94,2.81-3.94,6.13a8.77,8.77,0,0,0,.56,3.11.84.84,0,0,1-.48,1.08A.93.93,0,0,1,15.87,17.51Z"/><path class="cls-1" d="M24.27,26.42a.83.83,0,1,1,0-1.65,3.63,3.63,0,1,0,0-7.26.83.83,0,0,1,0-1.66,5.29,5.29,0,0,1,0,10.57Z"/><path class="cls-1" d="M24.16,17.51a.93.93,0,0,1-.29-.05.84.84,0,0,1-.48-1.08A8.81,8.81,0,0,0,24,13.27C24,10,22.15,7.14,20,7.14a.83.83,0,0,1,0-1.66c3.08,0,5.58,3.49,5.58,7.79A10.53,10.53,0,0,1,24.94,17,.83.83,0,0,1,24.16,17.51Z"/><path class="cls-1" d="M20,26.42A3.11,3.11,0,0,1,17.1,23.6a1.53,1.53,0,0,0-.7-.84,1.54,1.54,0,0,0-1.21.34.83.83,0,0,1-.91-1.39,3,3,0,0,1,2.69-.5,3.16,3.16,0,0,1,1.74,2,.59.59,0,0,1,0,.13A1.5,1.5,0,0,0,20,24.77a.83.83,0,0,1,0,1.65Z"/><path class="cls-1" d="M20,26.42a.83.83,0,1,1,0-1.65,1.49,1.49,0,0,0,1.28-1.46.31.31,0,0,1,0-.13,3.08,3.08,0,0,1,1.73-2,3,3,0,0,1,2.69.5.83.83,0,0,1-.91,1.39,1.54,1.54,0,0,0-1.21-.34,1.47,1.47,0,0,0-.7.84A3.1,3.1,0,0,1,20,26.42Z"/><path class="cls-1" d="M26.28,32a.7.7,0,0,1-.47-.19l-1.88-1.88a.66.66,0,1,1,.94-.94l1.88,1.88a.66.66,0,0,1,0,.94A.7.7,0,0,1,26.28,32Z"/><path class="cls-1" d="M23.41,33.58a.66.66,0,0,1-.59-.36l-1.2-2.37a.66.66,0,1,1,1.18-.6L24,32.62a.66.66,0,0,1-.29.89A.6.6,0,0,1,23.41,33.58Z"/><path class="cls-1" d="M20,34.39a.67.67,0,0,1-.67-.67V31.07a.67.67,0,0,1,1.33,0v2.65A.67.67,0,0,1,20,34.39Z"/><path class="cls-1" d="M13.75,32a.7.7,0,0,1-.47-.19.68.68,0,0,1,0-.94L15.16,29a.66.66,0,1,1,.94.94l-1.88,1.88A.7.7,0,0,1,13.75,32Z"/><path class="cls-1" d="M16.62,33.58a.63.63,0,0,1-.3-.07.66.66,0,0,1-.29-.89l1.2-2.37a.67.67,0,0,1,.89-.29.66.66,0,0,1,.29.89l-1.2,2.37A.66.66,0,0,1,16.62,33.58Z"/></g></g></svg>