<svg xmlns="http://www.w3.org/2000/svg" viewBox="0 0 28.31 32.48"><defs><style>.cls-1{fill:#e34f3b;}</style></defs><title>severe-irritation</title><g id="Layer_2" data-name="Layer 2"><g id="레이어_1" data-name="레이어 1"><path class="cls-1" d="M10.7,27.15a5.38,5.38,0,1,1,5.37-5.37A5.38,5.38,0,0,1,10.7,27.15Zm0-9.38a4,4,0,1,0,4,4A4,4,0,0,0,10.7,17.77Z"/><path class="cls-1" d="M10.7,27.15a5.38,5.38,0,1,1,5.37-5.37A5.38,5.38,0,0,1,10.7,27.15Zm0-9.38a4,4,0,1,0,4,4A4,4,0,0,0,10.7,17.77Z"/><path class="cls-1" d="M10.7,17.77a.66.66,0,0,1-.66-.65V11.79a.66.66,0,0,1,.66-.65.67.67,0,0,1,.66.65v5.33A.67.67,0,0,1,10.7,17.77Z"/><path class="cls-1" d="M10.7,32.48a.67.67,0,0,1-.66-.66V26.5a.67.67,0,0,1,.66-.66.67.67,0,0,1,.66.66v5.32A.67.67,0,0,1,10.7,32.48Z"/><path class="cls-1" d="M6,22.44H.66A.67.67,0,0,1,0,21.78a.71.71,0,0,1,.66-.66H6a.66.66,0,0,1,0,1.32Z"/><path class="cls-1" d="M20.74,22.44H15.41a.66.66,0,0,1-.65-.66.71.71,0,0,1,.65-.66h5.33a.66.66,0,0,1,.65.66A.71.71,0,0,1,20.74,22.44Z"/><path class="cls-1" d="M17.83,29.79a.7.7,0,0,1-.5-.22l-3.78-3.79a.66.66,0,0,1,.93-.93l3.79,3.79a.63.63,0,0,1,0,.93A.52.52,0,0,1,17.83,29.79Z"/><path class="cls-1" d="M7.08,19.09a.66.66,0,0,1-.5-.22L2.8,15.09a.63.63,0,0,1,0-.94.63.63,0,0,1,.93,0l3.79,3.79a.63.63,0,0,1,0,.93C7.46,19,7.3,19.09,7.08,19.09Z"/><path class="cls-1" d="M14,19.09a.64.64,0,0,1-.49-.22.63.63,0,0,1,0-.93l3.78-3.79a.65.65,0,0,1,.94,0,.69.69,0,0,1,0,.94l-3.79,3.78C14.43,19,14.21,19.09,14,19.09Z"/><path class="cls-1" d="M3.4,29.73a.64.64,0,0,1-.49-.22.62.62,0,0,1,0-.93L6.69,24.8a.66.66,0,0,1,.94.93L3.84,29.51A.49.49,0,0,1,3.4,29.73Z"/><circle class="cls-1" cx="10.7" cy="21.72" r="1.76"/><path class="cls-1" d="M20.74,11.52a3.95,3.95,0,1,1,4-3.95A4,4,0,0,1,20.74,11.52Zm0-6.53a2.58,2.58,0,1,0,2.57,2.58A2.57,2.57,0,0,0,20.74,5Z"/><path class="cls-1" d="M20.74,11.52a3.95,3.95,0,1,1,4-3.95A4,4,0,0,1,20.74,11.52Zm0-6.53a2.58,2.58,0,1,0,2.57,2.58A2.57,2.57,0,0,0,20.74,5Z"/><path class="cls-1" d="M20.74,5a.67.67,0,0,1-.66-.66V.66A.67.67,0,0,1,20.74,0a.71.71,0,0,1,.65.66V4.33A.71.71,0,0,1,20.74,5Z"/><path class="cls-1" d="M20.74,15.2a.67.67,0,0,1-.66-.66V10.86a.67.67,0,0,1,.66-.66.71.71,0,0,1,.65.66v3.68A.71.71,0,0,1,20.74,15.2Z"/><path class="cls-1" d="M17.44,8.23H13.77a.67.67,0,0,1-.66-.66.71.71,0,0,1,.66-.66h3.67a.66.66,0,1,1,0,1.32Z"/><path class="cls-1" d="M27.65,8.23H24a.67.67,0,0,1-.66-.66A.71.71,0,0,1,24,6.91h3.68a.66.66,0,0,1,0,1.32Z"/><path class="cls-1" d="M25.67,13.33a.64.64,0,0,1-.49-.22l-2.63-2.63a.66.66,0,0,1,.93-.93l2.63,2.63a.62.62,0,0,1,0,.93A.48.48,0,0,1,25.67,13.33Z"/><path class="cls-1" d="M18.21,5.92a.67.67,0,0,1-.49-.21L15.09,3.07a.62.62,0,0,1,0-.93.68.68,0,0,1,.93,0l2.63,2.63a.63.63,0,0,1,0,.94A.5.5,0,0,1,18.21,5.92Z"/><path class="cls-1" d="M23,5.92a.67.67,0,0,1-.49-.21.63.63,0,0,1,0-.94l2.63-2.63a.63.63,0,0,1,.93,0,.67.67,0,0,1,0,.93L23.48,5.71A.73.73,0,0,1,23,5.92Z"/><path class="cls-1" d="M15.69,13.28a.67.67,0,0,1-.49-.22.63.63,0,0,1,0-.94l2.63-2.63a.63.63,0,0,1,.93,0,.62.62,0,0,1,0,.93l-2.63,2.64A.52.52,0,0,1,15.69,13.28Z"/><path class="cls-1" d="M6,5.92H2.58a.66.66,0,0,1-.66-.65.67.67,0,0,1,.66-.66H6a.67.67,0,0,1,.66.66A.62.62,0,0,1,6,5.92Z"/><path class="cls-1" d="M4.33,7.63A.66.66,0,0,1,3.68,7V3.51a.66.66,0,0,1,.65-.66A.71.71,0,0,1,5,3.51V7A.64.64,0,0,1,4.33,7.63Z"/><path class="cls-1" d="M27.54,27.15H24.08a.66.66,0,1,1,0-1.31h3.46a.66.66,0,1,1,0,1.31Z"/><path class="cls-1" d="M25.84,28.85a.66.66,0,0,1-.66-.65V24.74a.66.66,0,0,1,1.32,0V28.2A.66.66,0,0,1,25.84,28.85Z"/></g></g></svg>