<svg xmlns="http://www.w3.org/2000/svg" viewBox="0 0 39.89 39.89"><defs><style>.cls-1{fill:#b3b3b3;}</style></defs><title>Asset 5</title><g id="Layer_2" data-name="Layer 2"><g id="Layer_1-2" data-name="Layer 1"><path class="cls-1" d="M19.94,39.89a19.95,19.95,0,1,1,20-19.95A20,20,0,0,1,19.94,39.89Zm0-38.24A18.29,18.29,0,1,0,38.23,19.94,18.32,18.32,0,0,0,19.94,1.65Z"/><path class="cls-1" d="M17.24,33a.83.83,0,0,1-.81-.64l-.38-1.62a17.8,17.8,0,0,1-3.88-.63,2.06,2.06,0,0,1-1.37-.79,5.16,5.16,0,0,1-.59-3.39,3.75,3.75,0,0,1-.28-2.39l-.36-.16A2,2,0,0,1,8.37,22a2.15,2.15,0,0,1,.4-1.69l1.83-2.75-.2-1.43a.88.88,0,0,1,0-.23c1.25-8.81,9.17-9,9.25-9,5,.44,8.43,2.06,10.33,4.83a10.37,10.37,0,0,1,1.26,8.12,1.42,1.42,0,0,1-.08.18C27,27.11,28,30,28,30a.86.86,0,0,1-.06.7.81.81,0,0,1-.56.41L17.39,33Zm-.54-3.91a.83.83,0,0,1,.81.63l.35,1.5,8.41-1.53c-.14-1.5.16-4.75,3.4-10.35a8.77,8.77,0,0,0-1.06-6.65C27,10.32,24,9,19.59,8.56c-.18,0-6.44.22-7.54,7.49l.23,1.63a.82.82,0,0,1-.13.57l-2,3.06a.59.59,0,0,0-.14.33s.07.11.28.21l1,.43a.83.83,0,0,1,.45,1,2.71,2.71,0,0,0,0,1.87.83.83,0,0,1,.21.69,4,4,0,0,0,.23,2.46.39.39,0,0,0,.29.17.45.45,0,0,1,.16,0,15,15,0,0,0,4.09.58Z"/><path class="cls-1" d="M15.37,23.76a.83.83,0,0,1-.58-1.41l3.9-3.91a.83.83,0,0,1,1.17,1.17L16,23.52A.86.86,0,0,1,15.37,23.76Z"/><path class="cls-1" d="M16.31,26.51a.83.83,0,0,1-.59-1.41l7-7a.82.82,0,1,1,1.17,1.16l-7,7A.79.79,0,0,1,16.31,26.51Z"/><path class="cls-1" d="M20,26.51a.79.79,0,0,1-.58-.25.82.82,0,0,1,0-1.16l3-3a.82.82,0,0,1,1.17,1.16l-3,3A.81.81,0,0,1,20,26.51Z"/></g></g></svg>